<svg xmlns="http://www.w3.org/2000/svg" width="512" height="512" viewBox="0 0 512 512">
  <rect width="512" height="512" rx="64" fill="#064e3b"/>
  <g fill="#fcd34d">
    <!-- Crescent Moon -->
    <path d="M256 80c-97.2 0-176 78.8-176 176s78.8 176 176 176c30 0 58.3-7.5 83-20.7-28.7 13.2-61 20.7-95 20.7-124.3 0-225-100.7-225-225S119.7 7 244 7c34 0 66.3 7.5 95 20.7C314.3 14.5 286 7 256 7c-97.2 0-176 78.8-176 176s78.8 176 176 176c30 0 58.3-7.5 83-20.7-28.7 13.2-61 20.7-95 20.7z" transform="translate(70, 50) scale(0.75)"/>
    <!-- Radio waves -->
    <circle cx="256" cy="320" r="30" fill="#fcd34d"/>
    <path d="M256 250c-38.7 0-70 31.3-70 70h20c0-27.6 22.4-50 50-50s50 22.4 50 50h20c0-38.7-31.3-70-70-70z" fill="#fcd34d" opacity="0.7"/>
    <path d="M256 200c-66.3 0-120 53.7-120 120h20c0-55.2 44.8-100 100-100s100 44.8 100 100h20c0-66.3-53.7-120-120-120z" fill="#fcd34d" opacity="0.5"/>
  </g>
  <text x="256" y="440" text-anchor="middle" font-family="Arial" font-size="48" fill="#fcd34d" font-weight="bold">القرآن</text>
</svg>
