<svg xmlns="http://www.w3.org/2000/svg" width="6802" height="1902" viewBox="0 0 6802 1902"><g fill="#d4a853"><path d="M6553.06 1483.424h184.618l.024-972.25 64.58-49.685-64.567-455.875V-.303l-.74.694-.099-.694-3.542 4.106-198.396 186zM5216.562 582.324l65.404-50.319-65.404-461.793-198.125 190.106v1223.106l198.125-261.956zM6510.563 1208.655c-56.684-57.17-212.175-220.524-212.175-220.524L6468.05 822.06c.388-243.432.873-486.862 1.261-730.292l-226.25 190.144s1.553 379.899 2.33 638.082l-.098.097-5.435 5.435.005-.004-5.246 5.246-.097-.097-52.22 49.404-6.697-7.085 51.929-49.21c-39.505-39.505-79.009-78.911-118.512-118.319V279.096c-63.577 63.479-127.151 126.86-190.63 190.338.097 72.602.292 145.3.292 218.001.096 112.3.096 181.796 0 294a85096 85096 0 0 1 132.586 132.294c-56.878 57.072-113.66 114.242-170.537 171.41-.777 69.982-1.553 128.316-2.33 198.298l396.128-.008-.012.008.155-.008h29.05c47.86 2.049 139.307 15.516 185.57 86.102 8.056 12.294 16.033 28.29 21.27 48.737l-.37-203.347-.206-.11c.212-68.76 1.672-135.42.576-206.156m-347.673 25.042h-133.557l-23.1 23.489-6.893-6.794 16.307-16.695 33.195-35.816c14.365-14.559 28.73-29.021 42.998-43.484 23.683 23.586 47.367 47.27 71.05 70.855zM5835.443 1483.437c.388-14.463.873-35.817.97-61.635.292-68.33-1.94-142-5.241-182.573-5.726-70.37-16.694-206.061-106.573-322.244-42.708-55.228-91.044-90.267-126.375-111.427-25.818 13.2-56.101 31.837-86.773 58.237-63.575 54.646-98.226 116.086-116.474 156.076 13.104-.39 127.249-2.136 194.997 87.16 28.051 36.974 38.745 87.715 39.892 92.792 7.232 31.992 7.44 59.594 6.213 78.814l-9.707-.486c1.068-18.83.097-37.951-2.523-56.684-118.998.486-195.58.971-316.712 1.456-58.528 91.82-116.96 168.596-175.488 260.514zM3710.765 1411.126c72.31 33 196.355 48.336 266.92-17.957 5.162-4.85 10.093-10.482 10.094-10.482 31.611-35.521 41.418-73.852 45.198-89.369 2.312-9.49 4.864-22.634 5.953-38.655l9.706.678c-1.94 29.216-9.22 57.267-21.548 83.474-5.63 12.036-11.938 22.906-18.732 32.71v.097l1.456 111.815h632.787c28.829 3.54 116.211 18.14 179.819 91.807 22.216 25.73 35.834 52.065 44.344 73.484a27118 27118 0 0 0 90.467-492.098c-35.039 1.068-117.055-1.165-202.372-51.248-23.975-14.074-109.875-68.137-155.299-177.623a358.1 358.1 0 0 1-25.236-96.965c-18.248.098-36.593 2.427-54.355 7.28l-2.524-9.415a225.6 225.6 0 0 1 36.726-6.57c.002 0 26.473-2.503 53.639 1.328 96.269 13.577 147.824 81.241 147.825 81.242 50.084 66.39 41.833 140.447 39.698 156.074 98.324-82.21 145.69-209.07 121.424-329.524-29.41-145.883-158.986-258.863-317.78-271.578-16.597 8.25-261.386 135.11-281.09 388.246-1.945 24.994-13.82 216.117 115.6 326.904 79.135 67.74 186.95 84.77 226.057 90.946 43.537 6.877 80.684 7.285 107.253 6.212v9.707h-5.63c-34.262 0-68.816-2.136-102.788-6.213-22.227-2.717-44.551-6.406-66.682-10.968h-.193a514901 514901 0 0 0-418.239-7.958c1.165-218.486-1.262-436.971 0-655.457-94.15 52.219-200.238 119.774-310.306 206.644-136.468 107.641-243.72 217.126-325.738 312.83 4.95 130.061 70.855 243.623 173.546 290.602m154.922-437.566a1859 1859 0 0 1 140.339-83.364c.291 103.661.485 207.42.68 311.083-109.777 30.768-214.992-28.44-269.055-121.716l-29.895 22.324-5.824-7.765a1860 1860 0 0 1 163.755-120.562M5663.125 621.648l-170.604-170.604-170.604 170.604 170.604 170.604zM3806.423 805.558l168.114-168.114-158.5-158.5 158.5-158.5-168.114-168.115-168.115 168.115 158.5 158.5-158.5 158.5z"/><path d="m5936.741 1831.866 316.715-17.639c-12.375-27.845-23.959-41.489-36.333-69.334-8.641 2.362-21.772 4.933-37.631 3.958-47.886-2.944-78.324-35.607-85.577-43.634-22.59-24.996-30.098-52.324-32.864-66.425 32.608-15.198 68.386-12.4 90.195 7.353 15.655 14.178 20.404 33.742 21.666 39.928 3.256 15.967 1.442 32.939-5.831 48.738 6.564-4.533 18.447-13.388 30.191-26.705 6.196-7.024 22.71-26.835 29.353-53.466 9.45-37.889-2.714-83.959-34.515-113.74-34.022-31.86-76.407-31.86-88.08-31.86-83.691-.002-134.425 77.353-139.176 84.85-1.116 23.785.084 70.548 25.706 120.25 14.19 27.528 31.485 47.446 45.182 60.71l-53.56 14.158zM2779.148 421.3s7.28 561.211 11.162 874.72a232.3 232.3 0 0 0 44.842-9.513l3.106 9.221a405 405 0 0 1-22.797 6.261c-37.993 9.253-68.75 10.898-76.195 11.083-38.381.951-98.662-21.026-160.162-65.292 24.544-39.284 52.253-99.095 81.629-172.673 30.574-76.581 41.64-170.343 40.377-216.35-3.494-126.665-115.406-262.26-274.781-353.983-84.152 83.376-138.798 163.16-172.478 219.844-54.3 91.39-113.39 190.223-117.542 327.292-1.455 48.048-2.9 132.426 49.016 216.059 24.93 40.162 54.184 67.29 75.029 83.861l-6.115 7.57c-30.478-24.652-56.393-53.674-77.068-86.287a325 325 0 0 1-19.412-35.136c-10.967-3.203-24.556-8.153-39.018-16.21-56.781-31.739-80.367-85.123-126.374-196.258-32.807-79.105-58.14-142.39-73.573-181.117-51.442 64.255-102.885 128.413-154.328 192.668 28.633 65.613 56.878 138.506 82.6 218.679 18.15 56.587 33.194 110.942 45.618 162.481l19.607-18.344 6.6 6.988-40.475 37.95-2.426 2.33c-54.16 52.414-115.503 106.38-184.611 159.57-186.65 143.554-370.388 235.665-521.706 295.746h656.62c65.421-96.673 130.84-193.443 196.26-290.117-7.28-60.954-14.657-121.812-21.84-182.766 13.978 74.445 56.394 135.886 116.475 160.442 63.478 25.915 129.383 3.689 156.172-5.338 47.851-16.112 81.823-42.222 102.4-61.343a332 332 0 0 1-24.848-21.937l6.795-6.988a340 340 0 0 0 25.138 22.227l.291-.29c14.269 11.356 137.148 105.991 297.786 66.098 145.495-36.106 210.914-155.007 220.911-173.837 22.034-52.898 38.437-105.7 60.373-158.501-1.845-351.654 0-1004.2 0-1004.2zm-249.449 792.315c-6.697-5.242-13.297-10.58-19.703-16.016-106.962-90.85-185.485-220.136-203.538-360.292q-4.076-43.387.29-85.9c118.708 85.706 205.674 212.468 224.602 359.516 3.3 34.263 2.911 68.623-1.65 102.692M1866.78 839.378c.194-.265.374-.546.567-.81-.405.555-.57.794-.567.81"/><path d="m1413.977 1559.64 83.279-252.75c-3.786-171.799-7.669-343.694-11.55-515.493q-107.303 67.845-214.603 135.692a136519 136519 0 0 0 54.644 450.56l-9.608 1.359-8.25-60.276c-34.942-14.56-92.403-44.745-141.517-104.438-78.91-95.606-83.375-202.082-83.57-234.889a71041 71041 0 0 1-87.742 50.957c16.5 99.197-27.858 196.161-108.904 241.975-82.114 46.395-167.14 20.867-196.55 9.415l-1.359 40.086-9.706-.388a48019 48019 0 0 0 9.998-709.326c-88.65 53.345-185.818 120.044-285.324 203.284C222.22 966.816 91.585 1124.358-.211 1255.351c31.448 152.58 133.072 265.075 249.06 281.187 92.403 12.812 169.956-36.398 169.956-36.398 54.257-34.36 81.726-81.531 94.149-108.611.097-.098.097-.098.097-.195a233.6 233.6 0 0 0 13.782-59.887l9.61.874c-2.233 23.78-7.765 46.88-16.695 68.816 1.554 31.74 3.106 63.381 4.562 95.218 24.46 17.082 108.127 71.146 216.06 56.587 123.365-16.695 228.385-116.28 264.686-252.263.292 23.682 3.98 63.187 23.975 106.088 38.339 82.114 108.708 118.027 128.8 127.442 48.045 22.324 90.753 23.877 168.402 26.886 36.107 1.359 66.293.097 87.744-1.456M508.78 1251.856c-115.213 39.504-231.007-7.765-299.532-97.547l-29.41 21.935-5.824-7.861A27414 27414 0 0 0 519.943 896.32c-6.406 118.415-10.192 236.928-11.162 355.537M1722.469 274.237l-.011-.075-.532.616q-91.695 91.394-183.392 182.787c6.041 543.007 12.082 598.765 18.122 1141.77l165.852-208.179c.007-295.714.013-442.434.02-604.937l65.334-50.265-65.317-461.18v-.612z"/><path d="M1494.556 268.507c82.465-76.883 247.553 47.524 353.431-38.314 10.588-8.584 65.973-56.068 65.098-121.705-.227-17.024-4.18-30.908-7.471-39.936-42.968 38-101.208 74.972-170.841 75.787-80.356.94-112.532-47.013-181.765-30.843-53.627 12.524-105.204 57.886-123.505 119.576-23.709 79.917 22.212 147.05 28.644 156.127-2.626-69.836 17.61-103.166 36.41-120.692M816.845 1712.673l-170.44-145.841-149.497 174.713 174.713 149.497 145.84-170.44 170.44 145.84 149.497-174.712-174.712-149.498zM1116.018 670.453l168.115 168.114 168.114-168.114-168.114-168.115zM293.591 173.515 125.477 341.63l158.5 158.5-158.5 158.5L293.59 826.744 461.706 658.63l-158.5-158.5 158.5-158.5zM2081.21 173.316l-168.115 168.115 158.501 158.5-158.5 158.5 168.114 168.114 168.115-168.114-158.5-158.5 158.5-158.5zM745.699 753.333c5.168 27.297 17.2 48.166 27.26 61.954 43.08 19.72 89.113 13.292 113.67-13.957 14.872-16.503 18.192-36.564 18.997-47.654 3.046 7.189 16.675 37.27 48.566 51.653 37.544 16.932 70.71-1.284 75.798-4.198 10.42-14.766 20.416-33.527 26.107-56.329 23.061-92.405-44.254-172.348-54.32-183.94l-20.652 33.868c7.363 11.4 19.007 32.705 23.13 61.955 3.625 25.72-.078 46.851-3.305 59.475-7.391 2.434-24.73 6.96-44.607.827-37.222-11.486-49.245-49.826-50.302-53.402-6.829 34.456-28.72 60.756-56.177 66.598-12.893 2.743-24.593.46-33.124-2.458-5.483-9.167-13.742-25.666-16.522-47.91-3.12-24.978 2.2-44.936 5.783-55.346l-11.565-20.652c-8.08 8.732-63.654 70.734-48.737 149.516M796.088 371.696c-13.611 61.067-3.844 96.562 4.848 116.84 6.599 15.394 17.559 39.968 43.977 52.793 37.809 18.354 76.73-2.185 81.78-4.956 34.11-18.72 44.87-52.009 47.085-59.477-30.078-7.782-48.8-21.258-60.39-32.507-56.499-54.836-57.037-166.887.826-278.382-35.401 36.18-96.424 108.323-118.126 205.689M3192.715 75.513v-6.96l-193.716 167.374V1561.64h193.716V581.062l64.566-49.675z"/></g></svg>